<svg xmlns="http://www.w3.org/2000/svg" width="19.438" height="11.26" viewBox="0 0 19.438 11.26">
  <defs>
    <style>
      .cls-1 {
        fill: #95e1d3;
        fill-rule: evenodd;
      }
    </style>
  </defs>
  <path id="VIEW" class="cls-1" d="M379.71,9115.78a0.117,0.117,0,0,0,0,.02v0.01c0,0.01,0,.01,0,0.02s0,0.01,0,.02h0a0.734,0.734,0,0,1-.2.41c-0.2.25-.427,0.48-0.651,0.71a16.685,16.685,0,0,1-4.123,3.12,11.065,11.065,0,0,1-3.09,1.12,9.027,9.027,0,0,1-3.55-.05,13.554,13.554,0,0,1-5.5-2.86,15.053,15.053,0,0,1-2.108-2.04,0.778,0.778,0,0,1,0-1.05c0.2-.24.426-0.47,0.651-0.7a16.648,16.648,0,0,1,4.123-3.12,11.048,11.048,0,0,1,3.089-1.12,8.843,8.843,0,0,1,3.55.05,13.433,13.433,0,0,1,5.5,2.86,14.981,14.981,0,0,1,2.108,2.03,0.8,0.8,0,0,1,.2.41c0,0.01,0,.01,0,0.01a0.059,0.059,0,0,1,0,.02s0,0.01,0,.01a0.134,0.134,0,0,0,0,.02c0,0.01,0,.01,0,0.02s0,0.03,0,.04S379.71,9115.76,379.71,9115.78Zm-9.72-3.84a3.645,3.645,0,1,0,3.646,3.65A3.645,3.645,0,0,0,369.99,9111.94Zm0,5.47a1.825,1.825,0,1,1,1.823-1.82A1.824,1.824,0,0,1,369.99,9117.41Z" transform="translate(-360.281 -9110.12)"/>
</svg>
